<svg xmlns="http://www.w3.org/2000/svg" viewBox="0 0 225.03 225.03"><defs><style>.cls-1,.cls-3{fill:#17479e;}.cls-2{fill:#ffdc05;}.cls-3{font-size:20.7px;font-family:Helvetica-Bold, Helvetica;font-weight:700;}.cls-4{letter-spacing:-0.03em;}.cls-5{letter-spacing:-0.02em;}.cls-6{fill:none;stroke:#17479e;stroke-miterlimit:10;stroke-width:5px;}</style></defs><title>자산 7</title><g id="레이어_2" data-name="레이어 2"><g id="Layer_1" data-name="Layer 1"><path class="cls-1" d="M46.84,147.09c-.21-.23.69-2.07.86-2.34.06-4.48,2.31-9.88,3.35-14.32,1.68-7.19,3.77-13.11-.75-19.33-3.46-4.76-8-8.6-11.94-12.71,0,0-5.09,0-1.61,5,0,0,7.23,7.06,7.5,10.41.14,1.71.06,9.89,0,17.49l-10.88,3.41c.18-6.53.53-11.79-4.54-16.13-3.82-3.28-7.56-6.74-11.31-10.14,0,0-4.82.67-1.34,4.7l9.1,16.46,3.21,29.56s1.61,1.35,3.21-.67c1.78-2.23,13.46-13.35,15.18-11.43m-13.56-7,10.83-1.83c0,2.66-.08,4.84-.1,6.07l-10.73,7.16q0-5.7,0-11.41"/><path class="cls-1" d="M69.14,122.91l-4.75.24c1-4.58,1.81-8.3,1.81-8.3s0-3-.8-4.37S52,101.08,52,101.08s-4.28-1.68-2.41,2c0,0,9.11,9.41,9.91,14.78s-2.14,20.83-2.14,20.83,2.41,4.7,3.48.33c.49-2,1.63-7.13,2.74-12.17,1.84,1.09,5.06,2.49,6.9.42,2.68-3-1.34-4.37-1.34-4.37"/><path class="cls-1" d="M63.25,147.1c-3.19,0-7,2-10,3-1.85.58-12.34,5.64-13.79,4.38,2.1,1.84,4.31,4.17,6.69,5.38a5.79,5.79,0,0,0,1.61.67c1.6-.34,8.57-5.71,8.57-5.71s0,9.07-.27,13.77,3.21,3,3.21,3,5.35-17.13,6.69-19.82-1.88-4.7-2.68-4.7"/><path class="cls-1" d="M93.46,137.51l6,3.86s10.82,2,5-2.71c-5.38-4.36-8.62-5.18-9.12-5.29.9-2.61.58-5.68,1.55-8.15s3.6-3.49.41-6.12c-4.62-3.82-14.14.83-19.44-3-5.09-3.69-9.48-5.32-7.48-1.48l8.52,11.32a36.78,36.78,0,0,0,10.59,1.34,13.94,13.94,0,0,0,3-.46c-2.7,9.78-14.2,14.84-18.86,18.29-5,3.72-2.29,4.9-2.29,4.9l9.17-.32a28,28,0,0,0,13-12.17"/><path class="cls-1" d="M115.12,132.28c-1.9-5.45-5-16.19-9.49-18.85-2.57-1.52-3.35,0-2.42,3.39,0,0,4.87,10.44,5.65,18.92.31,3.37.41,8.85.42,14.24-4.2,1.2-19.7,5.26-27.4,2.13,0,0-4.6-2-3.17.46a47.16,47.16,0,0,0,5.75,7.57c3.09,3.38,6.78-.33,10.14-1.65.54-.21,1.08-.4,1.62-.61-.23,3.81-.78,12.63-.84,13.68-.08,1.34.65,6.45,2.35.16A99.63,99.63,0,0,0,100,156.47c1.23-.46,2.46-.94,3.69-1.38a50.28,50.28,0,0,0,5.59-2h0c0,7-.19,13-.19,13s1.31,8.51,3.7-.43A82,82,0,0,0,115,147.2c.13-4.08,1.35-11.24.07-14.92"/><path class="cls-1" d="M121.51,150.8s.87,4.89,5.24.31c3.39-3.56,6.43-7.48,9.53-11.32,2.44,2.73,8.35,3.76,14.06,8.26,7,5.5,7-2.45,5.53-2.75-1.16-.24-10.62-8.43-14.43-11.75,1.35-2.2,1.84-4.61-.13-7.2-1.16-1.53-10.48-6.42-13.4-8.56s-5.82-.3-3.2,2.45c4.61,4.84,9,9.45,6.57,16.67-1.72,5.09-6.2,10-9.77,13.89"/><path class="cls-1" d="M158.2,159.36c-7.86,0-19.8,4-27.08,1.23s-16.89-10.39-14-1.84a38.12,38.12,0,0,0,6.6,8c5.17,4.42,13.38.22,19.29-1,6.43-1.3,12-2.69,18.47-1.29,2.74-3.43.3-5.15-3.29-5.15"/><path class="cls-1" d="M169.26,136.29c0,1.11-.86,11,2.09,8.31,2.35-2.13,1-4.79,1.73-7.42.9-3.47,4.78-3.87,7.83-4.62,2.15-.92,8.27-4.05,2.11-4.1a12.63,12.63,0,0,0-2.9.71c-2.77.7-5.52,1.41-8.33,2-6,1.17-12.8,2.45-18.83.82,0,0-5.24-1.53-3.5.61a46.64,46.64,0,0,0,6.9,6.51c3.66,2.88,7.5-.71,11.14-2.11l1.76-.66"/><path class="cls-1" d="M196.55,107.61a50.74,50.74,0,0,1-7.2-7.75C187,96.81,181.79,96.19,185,102c3.32,6,6.71,12.42,7.2,19.42.54,7.72-3.63,13.87-5.51,21.07-.34,1.3-.65,3.13,1.28,3.46,5,.83,10.55-20.45,11.7-23.54,2.66-7.18,2.58-9.9-3.1-14.79"/><path class="cls-1" d="M159.61,128c6.12,3.31,13.47-2.76,17-7.52,4.33-5.93,2.24-11.86-3.53-15.52-3.51-2.22-8.73-2.19-13.18-.52-5.81,2.18-10.15,7.17-7.75,13.84,1.39,3.85,3.94,7.8,7.49,9.72M163,111.39a6.26,6.26,0,0,1,5.35.21c2.34,1.48,3.18,3.89,1.43,6.29-1.42,1.94-4.4,4.4-6.88,3.06a7.24,7.24,0,0,1-3-3.95c-1-2.71.79-4.73,3.14-5.62"/><path class="cls-1" d="M183.92,146.88c-5.5-2.93-11.94-2.82-14.91,3.59-1.71,3.7-2.7,8.36-1.59,12.39,1.91,6.95,11.16,8.38,16.86,7.77,7.07-.76,9.76-6.43,8.33-13.34-.87-4.2-4.48-8.16-8.69-10.41m-2.49,16.79c-2.31.24-6.07-.34-6.84-3.16a7.64,7.64,0,0,1,.64-5c1.21-2.6,3.82-2.65,6-1.46a6.78,6.78,0,0,1,3.53,4.22c.58,2.81-.51,5.11-3.38,5.42"/><path class="cls-2" d="M159.84,31.7a40.89,40.89,0,0,1-34.47,26.81l-1.93-19-2.54,4.66-.65-.25c-9.6-3.84-16.09.09-16.09.09l-2.45-4.7-2.29,19A40.89,40.89,0,0,1,65.46,30.81c-9.18,20-41.76,13.5-41.76,13.5,11.3,3.77,13,20.3,13,20.3C54.38,66.86,52.39,96,52.39,96c14.7-21.32,26-2.92,26-2.92,20.16-11.79,33.77,21.44,33.77,21.44s13.67-33,33.6-20.81c0,0,11.63-18.18,25.92,3.42,0,0-1.44-29.21,16.29-31.13,0,0,2-16.5,13.37-20,0,0-32.7,5.87-41.49-14.29M106.78,56.09a1.67,1.67,0,0,1-1.3-2,1.63,1.63,0,0,1,1.87-1.37,1.67,1.67,0,0,1,1.3,2,1.63,1.63,0,0,1-1.87,1.37m11.25.11a1.61,1.61,0,0,1-1.84-1.4,1.69,1.69,0,0,1,1.35-1.93,1.61,1.61,0,0,1,1.83,1.4A1.69,1.69,0,0,1,118,56.19"/><text class="cls-3" transform="translate(61.91 200.64)"><tspan class="cls-4">si</tspan><tspan class="cls-5" x="16.23" y="0">n</tspan><tspan class="cls-4" x="28.38" y="0">c</tspan><tspan class="cls-5" x="39.37" y="0">e </tspan><tspan class="cls-4" x="55.64" y="0">200</tspan><tspan x="88.62" y="0">3</tspan></text><circle class="cls-6" cx="112.52" cy="112.52" r="110.02"/></g></g></svg>