<svg xmlns="http://www.w3.org/2000/svg" viewBox="0 0 186.48 77.19"><defs><style>.cls-1{fill:#000;}</style></defs><title>자산 12</title><g id="레이어_2" data-name="레이어 2"><g id="Layer_1" data-name="Layer 1"><path class="cls-1" d="M32,49.51c-.21-.23.69-2.07.86-2.34.06-4.48,2.31-9.88,3.35-14.32,1.68-7.19,3.77-13.11-.75-19.33C32,8.75,27.44,4.91,23.48.8c0,0-5.09,0-1.61,5,0,0,7.23,7.06,7.5,10.41.14,1.71.06,9.89,0,17.48L18.46,37.15c.18-6.53.53-11.79-4.54-16.13C10.09,17.74,6.36,14.28,2.6,10.88c0,0-4.82.67-1.34,4.71L10.37,32l3.21,29.56s1.61,1.34,3.21-.67C18.57,58.71,30.25,47.59,32,49.51Zm-13.57-7,10.83-1.83c0,2.66-.08,4.84-.11,6.07L18.4,53.88Q18.4,48.18,18.4,42.48Z"/><path class="cls-1" d="M54.28,25.32l-4.75.24c1-4.58,1.81-8.3,1.81-8.3s0-3-.8-4.37-13.39-9.4-13.39-9.4-4.28-1.68-2.41,2c0,0,9.11,9.41,9.91,14.78S42.5,41.11,42.5,41.11s2.41,4.7,3.48.33c.49-2,1.63-7.13,2.74-12.17,1.84,1.09,5.06,2.49,6.9.42C58.29,26.67,54.28,25.32,54.28,25.32Z"/><path class="cls-1" d="M48.39,49.51c-3.19,0-7,2-10,3C36.5,53.1,26,58.17,24.56,56.9c2.1,1.84,4.31,4.17,6.69,5.38a5.79,5.79,0,0,0,1.61.67c1.61-.34,8.57-5.71,8.57-5.71s0,9.07-.27,13.78,3.21,3,3.21,3,5.35-17.13,6.69-19.82S49.19,49.51,48.39,49.51Z"/><path class="cls-1" d="M78.59,39.93l6,3.86s10.82,2,5-2.71c-5.38-4.36-8.62-5.18-9.12-5.29.9-2.61.58-5.68,1.55-8.15s3.6-3.49.41-6.12c-4.62-3.82-14.14.83-19.44-3-5.09-3.69-9.48-5.32-7.48-1.48L64,28.33a36.79,36.79,0,0,0,10.59,1.34,14,14,0,0,0,3-.46C74.86,39,63.36,44.06,58.7,47.51c-5,3.72-2.29,4.9-2.29,4.9l9.17-.32A28,28,0,0,0,78.59,39.93Z"/><path class="cls-1" d="M100.25,34.7c-1.9-5.45-5-16.19-9.49-18.85-2.57-1.52-3.35,0-2.42,3.39,0,0,4.86,10.44,5.65,18.92.31,3.37.41,8.85.42,14.24-4.2,1.2-19.7,5.25-27.4,2.12,0,0-4.6-2-3.17.46a47.13,47.13,0,0,0,5.75,7.57c3.09,3.39,6.78-.33,10.13-1.65.54-.21,1.08-.4,1.62-.61-.23,3.81-.78,12.63-.84,13.68-.08,1.34.65,6.45,2.35.16a99.75,99.75,0,0,0,2.22-15.24c1.23-.46,2.46-.94,3.69-1.38a50.17,50.17,0,0,0,5.59-2h0c0,7-.19,13-.19,13s1.31,8.51,3.7-.43a82,82,0,0,0,2.26-18.46C100.31,45.54,101.53,38.37,100.25,34.7Z"/><path class="cls-1" d="M106.64,53.22s.87,4.89,5.24.31c3.39-3.56,6.43-7.48,9.52-11.31,2.44,2.73,8.35,3.76,14.06,8.26,7,5.5,7-2.45,5.53-2.75-1.16-.25-10.62-8.43-14.43-11.75,1.35-2.21,1.84-4.61-.13-7.2-1.16-1.53-10.48-6.42-13.4-8.56s-5.82-.3-3.21,2.45c4.61,4.84,9,9.45,6.57,16.67C114.7,44.41,110.22,49.28,106.64,53.22Z"/><path class="cls-1" d="M143.33,61.77c-7.86,0-19.8,4-27.08,1.22s-16.89-10.39-14-1.84a38.09,38.09,0,0,0,6.6,8c5.17,4.41,13.38.22,19.29-1,6.43-1.3,12-2.69,18.47-1.29C149.36,63.49,146.92,61.77,143.33,61.77Z"/><path class="cls-1" d="M154.39,38.71c0,1.11-.86,11,2.09,8.31,2.36-2.13,1-4.79,1.73-7.42.9-3.47,4.78-3.87,7.83-4.62,2.15-.92,8.27-4.05,2.11-4.1a12.68,12.68,0,0,0-2.9.71c-2.77.7-5.52,1.41-8.33,2-6,1.17-12.8,2.45-18.83.82,0,0-5.24-1.53-3.5.61a46.69,46.69,0,0,0,6.9,6.51c3.66,2.88,7.5-.72,11.14-2.12Z"/><path class="cls-1" d="M181.69,10a50.73,50.73,0,0,1-7.2-7.75c-2.33-3.06-7.57-3.67-4.37,2.14,3.32,6,6.72,12.42,7.2,19.42.54,7.72-3.63,13.87-5.51,21.07-.34,1.3-.65,3.13,1.28,3.46,5,.83,10.55-20.45,11.7-23.54C187.45,17.63,187.37,14.92,181.69,10Z"/><path class="cls-1" d="M144.74,30.44c6.12,3.31,13.47-2.76,17-7.52C166,17,163.95,11,158.18,7.4c-3.51-2.22-8.73-2.19-13.18-.52-5.81,2.18-10.15,7.17-7.75,13.84C138.64,24.57,141.2,28.51,144.74,30.44Zm3.41-16.63a6.26,6.26,0,0,1,5.35.21c2.34,1.48,3.19,3.89,1.43,6.29-1.42,1.94-4.4,4.4-6.88,3.06a7.24,7.24,0,0,1-3-3.95C144,16.71,145.8,14.69,148.15,13.8Z"/><path class="cls-1" d="M169.05,49.3c-5.5-2.93-11.94-2.82-14.91,3.59-1.71,3.7-2.7,8.36-1.59,12.39,1.91,6.95,11.16,8.38,16.86,7.77,7.07-.76,9.76-6.43,8.33-13.34C176.88,55.5,173.26,51.55,169.05,49.3Zm-2.49,16.79c-2.31.24-6.07-.34-6.84-3.16a7.64,7.64,0,0,1,.64-5c1.2-2.6,3.82-2.65,6-1.46a6.78,6.78,0,0,1,3.53,4.22C170.52,63.48,169.44,65.78,166.57,66.09Z"/></g></g></svg>