<svg xmlns="http://www.w3.org/2000/svg" viewBox="0 0 186.48 143.97"><defs><style>.cls-1{fill:#fff;}.cls-2{fill:#ffdc05;}</style></defs><title>자산 2</title><g id="레이어_2" data-name="레이어 2"><g id="Layer_1" data-name="Layer 1"><path class="cls-1" d="M32,116.28c-.21-.23.69-2.07.86-2.34.06-4.48,2.31-9.88,3.35-14.32,1.68-7.19,3.77-13.11-.75-19.33-3.46-4.76-8-8.6-11.94-12.71,0,0-5.09,0-1.61,5,0,0,7.23,7.06,7.5,10.41.14,1.71.06,9.89,0,17.48l-10.88,3.41c.18-6.53.53-11.79-4.54-16.13C10.09,84.52,6.36,81.05,2.6,77.66c0,0-4.82.67-1.34,4.71l9.1,16.46,3.21,29.56s1.61,1.34,3.21-.67C18.57,125.49,30.25,114.37,32,116.28Zm-13.57-7,10.83-1.83c0,2.66-.08,4.84-.11,6.07L18.4,120.66Q18.4,115,18.4,109.25Z"/><path class="cls-1" d="M54.28,92.1l-4.75.24c1-4.58,1.81-8.3,1.81-8.3s0-3-.8-4.37-13.39-9.4-13.39-9.4-4.28-1.68-2.41,2c0,0,9.11,9.41,9.91,14.78s-2.14,20.83-2.14,20.83,2.41,4.7,3.48.33c.49-2,1.63-7.13,2.74-12.17,1.84,1.09,5.06,2.49,6.9.42C58.29,93.45,54.28,92.1,54.28,92.1Z"/><path class="cls-1" d="M48.39,116.29c-3.19,0-7,2-10,3-1.85.58-12.34,5.64-13.79,4.38,2.1,1.84,4.31,4.17,6.69,5.38a5.79,5.79,0,0,0,1.61.67c1.61-.34,8.57-5.71,8.57-5.71s0,9.07-.27,13.78,3.21,3,3.21,3,5.35-17.13,6.69-19.82S49.19,116.29,48.39,116.29Z"/><path class="cls-1" d="M78.59,106.71l6,3.86s10.82,2,5-2.71c-5.38-4.36-8.62-5.18-9.12-5.29.9-2.61.58-5.68,1.55-8.15s3.6-3.49.41-6.12c-4.62-3.82-14.14.83-19.44-3-5.09-3.69-9.48-5.32-7.48-1.48L64,95.11a36.79,36.79,0,0,0,10.59,1.34,14,14,0,0,0,3-.46c-2.7,9.78-14.2,14.84-18.86,18.29-5,3.72-2.29,4.9-2.29,4.9l9.17-.32A28,28,0,0,0,78.59,106.71Z"/><path class="cls-1" d="M100.25,101.47c-1.9-5.45-5-16.19-9.49-18.85-2.57-1.52-3.35,0-2.42,3.39,0,0,4.86,10.44,5.65,18.92.31,3.37.41,8.85.42,14.24-4.2,1.2-19.7,5.25-27.4,2.12,0,0-4.6-2-3.17.46a47.13,47.13,0,0,0,5.75,7.57c3.09,3.39,6.78-.33,10.13-1.65.54-.21,1.08-.4,1.62-.61-.23,3.81-.78,12.63-.84,13.68-.08,1.34.65,6.45,2.35.16a99.75,99.75,0,0,0,2.22-15.24c1.23-.46,2.46-.94,3.69-1.38a50.17,50.17,0,0,0,5.59-2h0c0,7-.19,13-.19,13s1.31,8.51,3.7-.43a82,82,0,0,0,2.26-18.46C100.31,112.31,101.53,105.15,100.25,101.47Z"/><path class="cls-1" d="M106.64,120s.87,4.89,5.24.31c3.39-3.56,6.43-7.48,9.52-11.31,2.44,2.73,8.35,3.76,14.06,8.26,7,5.5,7-2.45,5.53-2.75-1.16-.25-10.62-8.43-14.43-11.75,1.35-2.21,1.84-4.61-.13-7.2C125.28,94,116,89.13,113,87s-5.82-.3-3.21,2.45c4.61,4.84,9,9.45,6.57,16.67C114.7,111.19,110.22,116.06,106.64,120Z"/><path class="cls-1" d="M143.33,128.55c-7.86,0-19.8,4-27.08,1.22s-16.89-10.39-14-1.84a38.09,38.09,0,0,0,6.6,8c5.17,4.41,13.38.22,19.29-1,6.43-1.3,12-2.69,18.47-1.29C149.36,130.26,146.92,128.55,143.33,128.55Z"/><path class="cls-1" d="M154.39,105.49c0,1.11-.86,11,2.09,8.31,2.36-2.13,1-4.79,1.73-7.42.9-3.47,4.78-3.87,7.83-4.62,2.15-.92,8.27-4.05,2.11-4.1a12.68,12.68,0,0,0-2.9.71c-2.77.7-5.52,1.41-8.33,2-6,1.17-12.8,2.45-18.83.82,0,0-5.24-1.53-3.5.61a46.69,46.69,0,0,0,6.9,6.51c3.66,2.88,7.5-.72,11.14-2.12Z"/><path class="cls-1" d="M181.69,76.81a50.73,50.73,0,0,1-7.2-7.75c-2.33-3.06-7.57-3.67-4.37,2.14,3.32,6,6.72,12.42,7.2,19.42.54,7.72-3.63,13.87-5.51,21.07-.34,1.3-.65,3.13,1.28,3.46,5,.83,10.55-20.45,11.7-23.54C187.45,84.41,187.37,81.69,181.69,76.81Z"/><path class="cls-1" d="M144.74,97.21c6.12,3.31,13.47-2.76,17-7.52,4.33-5.93,2.24-11.86-3.52-15.52-3.51-2.22-8.73-2.19-13.18-.52-5.81,2.18-10.15,7.17-7.75,13.84C138.64,91.34,141.2,95.29,144.74,97.21Zm3.41-16.63a6.26,6.26,0,0,1,5.35.21c2.34,1.48,3.19,3.89,1.43,6.29-1.42,1.94-4.4,4.4-6.88,3.06a7.24,7.24,0,0,1-3-3.95C144,83.49,145.8,81.46,148.15,80.58Z"/><path class="cls-1" d="M169.05,116.07c-5.5-2.93-11.94-2.82-14.91,3.59-1.71,3.7-2.7,8.36-1.59,12.39,1.91,6.95,11.16,8.38,16.86,7.77,7.07-.76,9.76-6.43,8.33-13.34C176.88,122.28,173.26,118.32,169.05,116.07Zm-2.49,16.79c-2.31.24-6.07-.34-6.84-3.16a7.64,7.64,0,0,1,.64-5c1.2-2.6,3.82-2.65,6-1.46a6.78,6.78,0,0,1,3.53,4.22C170.52,130.26,169.44,132.56,166.57,132.87Z"/><path class="cls-2" d="M145,.9A40.89,40.89,0,0,1,110.5,27.7l-1.93-19L106,13.34l-.66-.25c-9.6-3.84-16.09.09-16.09.09l-2.45-4.7-2.29,19A40.89,40.89,0,0,1,50.59,0C41.41,20,8.83,13.5,8.83,13.5c11.3,3.77,13,20.3,13,20.3C39.51,36,37.52,65.22,37.52,65.22c14.7-21.32,26-2.92,26-2.92C83.66,50.51,97.27,83.75,97.27,83.75s13.67-33,33.6-20.81c0,0,11.63-18.18,25.92,3.42,0,0-1.44-29.2,16.29-31.13,0,0,2-16.5,13.37-20C186.46,15.18,153.76,21.06,145,.9ZM91.92,25.28a1.67,1.67,0,0,1-1.29-2A1.63,1.63,0,0,1,92.49,22a1.67,1.67,0,0,1,1.3,2A1.63,1.63,0,0,1,91.92,25.28Zm11.25.11a1.61,1.61,0,0,1-1.84-1.4,1.69,1.69,0,0,1,1.35-1.93,1.61,1.61,0,0,1,1.83,1.4A1.69,1.69,0,0,1,103.16,25.39Z"/></g></g></svg>