<svg xmlns="http://www.w3.org/2000/svg" viewBox="0 0 177.63 83.75"><defs><style>.cls-1{fill:#fff;}</style></defs><title>자산 9</title><g id="레이어_2" data-name="레이어 2"><g id="Layer_1" data-name="Layer 1"><path class="cls-1" d="M136.13.9A40.89,40.89,0,0,1,101.67,27.7l-1.93-19L97.2,13.34l-.66-.25c-9.6-3.84-16.09.09-16.09.09L78,8.48l-2.29,19A40.89,40.89,0,0,1,41.76,0C32.58,20,0,13.5,0,13.5c11.3,3.77,13,20.3,13,20.3C30.68,36,28.69,65.22,28.69,65.22c14.7-21.32,26-2.92,26-2.92C74.83,50.51,88.44,83.75,88.44,83.75s13.67-33,33.6-20.81c0,0,11.63-18.18,25.92,3.42,0,0-1.44-29.2,16.29-31.13,0,0,2-16.5,13.37-20C177.63,15.18,144.93,21.06,136.13.9ZM83.08,25.28a1.67,1.67,0,0,1-1.29-2A1.63,1.63,0,0,1,83.65,22a1.67,1.67,0,0,1,1.3,2A1.63,1.63,0,0,1,83.08,25.28Zm11.25.11A1.61,1.61,0,0,1,92.49,24a1.69,1.69,0,0,1,1.35-1.93,1.61,1.61,0,0,1,1.83,1.4A1.69,1.69,0,0,1,94.33,25.39Z"/></g></g></svg>